<?xml version="1.0" encoding="UTF-8" standalone="no"?>
<!DOCTYPE svg PUBLIC "-//W3C//DTD SVG 1.1//EN" "http://www.w3.org/Graphics/SVG/1.1/DTD/svg11.dtd">
<svg xmlns="http://www.w3.org/2000/svg" version="1.1" viewBox="0 0 1448 1448">
<path fill="#d7d3cd" d="
  M 1004.29 182.62
  C 1085.02 211.36 1154.69 262.94 1210.40 328.61
  C 1275.49 405.34 1312.34 498.96 1317.16 599.49
  Q 1323.30 727.36 1262.75 839.29
  Q 1255.84 852.05 1243.31 872.57
  Q 1235.98 884.58 1236.45 898.37
  Q 1236.65 904.31 1240.11 916.21
  C 1251.30 954.73 1262.87 993.13 1272.65 1032.04
  Q 1275.86 1044.86 1275.99 1051.69
  Q 1276.42 1076.14 1257.36 1093.37
  Q 1232.53 1115.81 1199.75 1111.30
  C 1180.83 1108.69 1161.59 1096.92 1143.45 1090.53
  C 1126.16 1084.45 1095.53 1075.86 1072.26 1065.50
  Q 1058.49 1059.36 1053.74 1058.05
  C 1018.81 1048.37 987.89 1067.31 955.43 1076.65
  Q 891.03 1095.20 825.95 1096.90
  C 700.79 1100.18 570.68 1048.44 483.11 958.76
  C 406.49 880.30 358.68 780.75 345.97 671.66
  Q 343.37 649.43 342.21 627.06
  Q 341.88 620.66 342.16 614.26
  C 347.27 499.61 388.59 395.93 465.80 312.32
  C 544.45 227.17 649.53 170.46 764.99 156.50
  C 844.30 146.91 928.39 155.59 1004.29 182.62
  Z
  M 521.99 872.76
  C 577.69 940.40 656.10 983.17 740.74 1002.63
  C 804.85 1017.38 873.87 1010.08 936.98 991.66
  C 975.81 980.33 1007.63 957.24 1049.99 967.55
  C 1084.12 975.85 1116.79 988.88 1150.36 1000.60
  Q 1151.79 1001.09 1153.00 1001.99
  C 1159.15 1006.54 1168.83 1014.13 1173.74 1002.43
  Q 1176.51 995.81 1173.80 988.43
  C 1169.86 977.73 1166.56 965.11 1163.51 955.98
  C 1156.44 934.84 1146.99 912.41 1145.98 890.75
  C 1144.02 848.64 1176.14 819.01 1193.09 784.59
  C 1222.31 725.22 1237.56 656.16 1231.94 590.80
  C 1223.91 497.46 1176.85 411.44 1109.98 347.14
  C 1036.60 276.58 940.17 242.98 839.49 239.11
  C 825.19 238.56 810.92 239.54 796.68 240.90
  C 655.68 254.39 521.39 336.59 463.47 469.38
  C 421.96 564.55 417.82 667.31 457.23 764.15
  Q 481.34 823.41 521.99 872.76
  Z"
/>
<path fill="#d7d3cd" d="
  M 256.19 1297.56
  C 232.44 1290.47 216.68 1275.20 213.49 1250.01
  Q 209.94 1221.87 217.98 1191.24
  C 225.11 1164.11 239.83 1130.72 234.06 1102.34
  Q 232.93 1096.80 230.09 1088.98
  C 212.13 1039.65 198.36 1003.46 185.38 959.07
  Q 151.17 842.06 187.64 725.81
  Q 199.39 688.33 217.96 652.70
  C 226.52 636.27 239.76 619.46 260.19 621.56
  C 272.30 622.81 286.54 631.84 294.29 641.45
  C 306.08 656.08 303.64 673.04 295.62 688.67
  C 266.91 744.63 251.31 805.59 255.85 868.91
  Q 259.98 926.56 282.14 980.09
  Q 285.22 987.53 295.07 1002.48
  C 311.98 1028.12 329.12 1051.96 326.89 1082.43
  Q 325.97 1094.98 322.25 1112.90
  Q 316.02 1142.98 309.74 1173.05
  C 308.09 1180.93 303.61 1196.07 315.57 1197.29
  Q 320.73 1197.82 324.47 1195.75
  C 355.73 1178.47 388.72 1165.76 424.52 1162.12
  C 432.46 1161.31 441.68 1161.52 450.32 1161.50
  C 478.79 1161.45 504.83 1169.93 531.63 1178.23
  C 606.69 1201.46 689.01 1188.64 760.08 1157.15
  C 776.39 1149.92 791.99 1135.83 810.25 1134.39
  C 833.04 1132.61 852.87 1146.93 855.97 1170.22
  C 859.71 1198.33 842.30 1211.76 819.63 1223.24
  C 756.69 1255.10 690.07 1273.49 619.24 1274.03
  C 598.26 1274.19 579.80 1274.85 557.00 1271.75
  C 519.25 1266.61 473.76 1252.03 442.03 1245.14
  C 424.40 1241.30 400.87 1255.68 384.44 1262.58
  Q 379.55 1264.63 371.21 1267.14
  C 331.14 1279.18 298.65 1310.24 256.19 1297.56
  Z"
/>
</svg>
